<?xml version="1.0" encoding="UTF-8" standalone="no"?>
<!-- Created with Inkscape (http://www.inkscape.org/) -->

<svg
   width="500"
   height="500"
   viewBox="0 0 132.29167 132.29167"
   version="1.1"
   id="svg5"
   inkscape:export-filename="/Users/timmischok/Tim.png"
   inkscape:export-xdpi="96"
   inkscape:export-ydpi="96"
   inkscape:version="1.1.2 (b8e25be8, 2022-02-05)"
   sodipodi:docname="Tim.svg"
   xmlns:inkscape="http://www.inkscape.org/namespaces/inkscape"
   xmlns:sodipodi="http://sodipodi.sourceforge.net/DTD/sodipodi-0.dtd"
   xmlns="http://www.w3.org/2000/svg"
   xmlns:svg="http://www.w3.org/2000/svg">
  <sodipodi:namedview
     id="namedview7"
     pagecolor="#ffffff"
     bordercolor="#666666"
     borderopacity="1.0"
     inkscape:pageshadow="2"
     inkscape:pageopacity="0.0"
     inkscape:pagecheckerboard="0"
     inkscape:document-units="mm"
     showgrid="false"
     units="px"
     inkscape:zoom="0.66245342"
     inkscape:cx="412.85921"
     inkscape:cy="246.05503"
     inkscape:window-width="1366"
     inkscape:window-height="650"
     inkscape:window-x="0"
     inkscape:window-y="25"
     inkscape:window-maximized="0"
     inkscape:current-layer="layer1" />
  <defs
     id="defs2">
    <rect
       x="117.12542"
       y="86.355181"
       width="3.9703532"
       height="58.562709"
       id="rect39004" />
    <rect
       x="20.844354"
       y="67.496004"
       width="438.72402"
       height="314.65049"
       id="rect30360" />
  </defs>
  <g
     inkscape:label="Ebene 1"
     inkscape:groupmode="layer"
     id="layer1">
    <rect
       style="fill:#000000;stroke-width:5.784"
       id="rect20170"
       width="132.90501"
       height="132.53831"
       x="2.6394636e-07"
       y="-0.036287002"
       ry="0" />
    <g
       aria-label="Tim."
       transform="matrix(0.26458333,0,0,0.26458333,12.792296,25.716341)"
       id="text30358"
       style="font-size:192px;line-height:1.25;font-family:Pacifico;-inkscape-font-specification:Pacifico;white-space:pre;shape-inside:url(#rect30360);fill:#ffffff">
      <path
         d="m 182.31575,74.605342 q 5.952,1.152 8.832,4.032 3.072,2.88 3.072,6.72 0,6.336 -3.648,9.216 -3.456,2.88 -11.136,2.304 -17.28,-1.344 -27.072,-1.728 -9.6,-0.576 -25.344,-0.768 -7.104,35.327998 -13.056,71.039998 -2.112,13.056 -4.416,30.336 -2.304,17.088 -3.072,27.648 -0.384,5.568 -4.608,8.64 -4.224,2.88 -10.176,2.88 -6.336,0 -9.792,-3.072 -3.456,-3.072 -3.456,-8.064 0,-4.608 1.344,-15.168 1.536,-10.752 3.456,-22.464 2.112,-11.712 3.264,-20.352 2.112,-14.592 4.8,-28.992 2.688,-14.4 5.376,-27.264 0.576,-2.88 1.344,-6.528 0.768,-3.839998 1.728,-8.447998 -18.816,0.576 -29.568,3.072 -10.752,2.495998 -15.36,7.103998 -4.416,4.416 -4.416,11.52 0,6.528 3.84,12.48 0.768,1.344 0.768,2.88 0,3.648 -4.416,6.912 -4.224,3.072 -8.832,3.072 -3.264,0 -5.376,-1.92 -3.84,-3.264 -6.336,-9.216 -2.496,-6.144 -2.496,-13.824 0,-16.32 10.56,-26.111998 10.752,-9.984 32.448,-14.592 21.888,-4.608 56.064,-4.608 21.12,0 33.6,0.768 12.672,0.768 22.08,2.496 z"
         id="path50922" />
      <path
         d="m 183.46175,131.82134 q -8.064,0 -12.096,-3.648 -4.032,-3.84 -4.032,-10.56 0,-6.72 5.184,-11.136 5.376,-4.608 13.248,-4.608 7.104,0 11.52,3.456 4.416,3.456 4.416,9.792 0,7.68 -4.992,12.288 -4.992,4.416 -13.248,4.416 z m -1.536,103.104 q -12.48,0 -18.24,-8.832 -5.568,-8.832 -5.568,-23.424 0,-8.64 2.112,-22.08 2.304,-13.632 5.76,-25.344 1.728,-6.144 4.608,-8.448 2.88,-2.304 9.216,-2.304 9.792,0 9.792,6.528 0,4.8 -3.648,22.272 -4.608,21.12 -4.608,28.608 0,5.76 1.536,8.832 1.536,3.072 5.184,3.072 3.456,0 8.64,-4.8 5.184,-4.8 13.824,-15.168 2.304,-2.688 5.184,-2.688 2.496,0 3.84,2.304 1.536,2.304 1.536,6.336 0,7.68 -3.648,11.904 -19.008,23.232 -35.52,23.232 z"
         id="path50924" />
      <path
         d="m 219.19175,234.92534 q -7.296,0 -10.368,-7.68 -2.88,-7.68 -2.88,-24.576 0,-24.96 7.104,-47.424 1.728,-5.568 5.568,-8.064 4.032,-2.688 11.136,-2.688 3.84,0 5.376,0.96 1.536,0.96 1.536,3.648 0,3.072 -2.88,13.824 -1.92,7.68 -3.072,13.44 -1.152,5.568 -1.92,14.016 5.184,-14.976 12.288,-25.344 7.296,-10.368 14.784,-15.36 7.68,-5.184 14.4,-5.184 6.72,0 9.408,3.072 2.88,3.072 2.88,9.408 0,6.144 -3.648,22.272 -1.536,6.912 -2.112,10.368 6.336,-16.128 14.016,-26.304 7.872,-10.176 15.36,-14.4 7.488,-4.416 13.824,-4.416 6.144,0 9.216,3.264 3.264,3.072 3.264,9.216 0,4.992 -2.112,18.816 -1.92,11.712 -3.072,22.272 -1.152,10.368 -1.152,23.232 0,7.296 -3.072,10.56 -2.88,3.072 -9.6,3.072 -6.336,0 -9.216,-3.264 -2.88,-3.264 -2.88,-9.792 0,-7.68 2.688,-25.344 2.304,-15.36 2.304,-19.584 0,-3.072 -2.112,-3.072 -2.496,0 -7.104,6.528 -4.608,6.336 -9.216,16.896 -4.608,10.56 -7.488,22.272 -2.112,9.216 -4.992,12.288 -2.688,3.072 -8.832,3.072 -6.336,0 -9.6,-5.952 -3.072,-6.144 -3.072,-14.784 0,-7.296 1.92,-21.12 1.536,-12.288 1.536,-16.128 0,-3.072 -2.112,-3.072 -2.88,0 -7.296,6.912 -4.416,6.912 -8.64,17.664 -4.032,10.752 -6.528,21.12 -2.112,9.024 -4.992,12.288 -2.688,3.072 -8.64,3.072 z"
         id="path50926" />
      <path
         d="m 359.43275,234.92534 q -8.448,0 -12.864,-4.608 -4.224,-4.608 -4.224,-12.096 0,-8.64 4.8,-13.824 4.992,-5.184 13.824,-5.184 8.448,0 12.672,4.224 4.416,4.032 4.416,12.096 0,8.832 -4.992,14.208 -4.992,5.184 -13.632,5.184 z"
         id="path50928" />
    </g>
    <text
       xml:space="preserve"
       transform="scale(0.26458333)"
       id="text39002"
       style="line-height:1.25;font-family:Pacifico;font-size:40px;-inkscape-font-specification:Pacifico;white-space:pre;shape-inside:url(#rect39004)" />
  </g>
</svg>
